<svg width="122" height="8" viewBox="0 0 122 8" fill="none" xmlns="http://www.w3.org/2000/svg">
<path fill-rule="evenodd" clip-rule="evenodd" d="M4 8C6.20914 8 8 6.20914 8 4C8 1.79086 6.20914 0 4 0C1.79086 0 0 1.79086 0 4C0 6.20914 1.79086 8 4 8Z" fill="#D0D4E1"/>
<path fill-rule="evenodd" clip-rule="evenodd" d="M42 8C44.2091 8 46 6.20914 46 4C46 1.79086 44.2091 0 42 0C39.7909 0 38 1.79086 38 4C38 6.20914 39.7909 8 42 8Z" fill="#13C296"/>
<path fill-rule="evenodd" clip-rule="evenodd" d="M80 8C82.2091 8 84 6.20914 84 4C84 1.79086 82.2091 0 80 0C77.7909 0 76 1.79086 76 4C76 6.20914 77.7909 8 80 8Z" fill="#D0D4E1"/>
<path fill-rule="evenodd" clip-rule="evenodd" d="M118 8C120.209 8 122 6.20914 122 4C122 1.79086 120.209 0 118 0C115.791 0 114 1.79086 114 4C114 6.20914 115.791 8 118 8Z" fill="#D0D4E1"/>
</svg>
